<svg width="20" height="19" viewBox="0 0 20 19" fill="none" xmlns="http://www.w3.org/2000/svg">
<g id="arrows and chevrons/ArrowForward">
<path id="icon" fill-rule="evenodd" clip-rule="evenodd" d="M14.9914 9.39556L14.9983 9.44229L14.9982 9.51719L14.9871 9.58244L14.978 9.60849C14.9455 9.7132 14.8715 9.80219 14.7733 9.8615L10.941 13.059C10.7257 13.2387 10.3767 13.2387 10.1614 13.059C9.9701 12.8993 9.94884 12.6513 10.0977 12.4719L10.1614 12.4082L13.118 9.93916L5.51268 9.93971C5.22954 9.93971 5 9.73367 5 9.47951C5 9.25359 5.18136 9.0657 5.42053 9.02673L5.51268 9.01932L13.117 9.01894L10.1614 6.55083C9.9701 6.39109 9.94884 6.14311 10.0977 5.96375L10.1614 5.90002C10.3528 5.74027 10.6498 5.72252 10.8646 5.84677L10.941 5.90002L14.7733 9.09752C14.8715 9.15684 14.9455 9.24583 14.9795 9.35016L14.9914 9.39556Z" fill="#121C2D"/>
</g>
</svg>
