<svg width="28" height="28" viewBox="0 0 28 28" fill="none" xmlns="http://www.w3.org/2000/svg">
<g id="fi_2732657">
<path id="Vector" fill-rule="evenodd" clip-rule="evenodd" d="M22.1654 20.5175C22.621 20.9732 22.621 21.7118 22.1653 22.1674C21.7097 22.6229 20.971 22.6229 20.5154 22.1672L13.9993 15.65L7.48263 22.1667C7.02705 22.6222 6.28831 22.6222 5.83273 22.1667C5.37715 21.7111 5.37715 20.9723 5.83273 20.5168L12.3495 14L5.8332 7.48255C5.37773 7.0269 5.37773 6.28821 5.83343 5.83264C6.28901 5.37706 7.02775 5.37713 7.48333 5.83278L13.9995 12.3501L20.5162 5.83334C20.9718 5.37773 21.7105 5.37773 22.1661 5.83334C22.6217 6.28896 22.6217 7.02765 22.1661 7.48326L15.6492 14.0001L22.1654 20.5175Z" fill="#A6339C"/>
</g>
</svg>
