<svg width="20" height="20" viewBox="0 0 20 20" fill="none" xmlns="http://www.w3.org/2000/svg">
<path d="M3.02148 19.1667H11.1465C11.7264 19.1658 12.2823 18.935 12.6923 18.525C13.1024 18.1149 13.3331 17.559 13.334 16.9792V6.35416C13.3331 5.77427 13.1024 5.21838 12.6923 4.80833C12.2823 4.39829 11.7264 4.16754 11.1465 4.16666H3.02148C2.44159 4.16754 1.88571 4.39829 1.47566 4.80833C1.06562 5.21838 0.834866 5.77427 0.833984 6.35416V16.9792C0.834866 17.559 1.06562 18.1149 1.47566 18.525C1.88571 18.935 2.44159 19.1658 3.02148 19.1667ZM2.50065 6.35416C2.50065 6.21602 2.55552 6.08355 2.6532 5.98587C2.75087 5.8882 2.88335 5.83332 3.02148 5.83332H11.1465C11.2846 5.83332 11.4171 5.8882 11.5148 5.98587C11.6124 6.08355 11.6673 6.21602 11.6673 6.35416V16.9792C11.6673 17.1173 11.6124 17.2498 11.5148 17.3474C11.4171 17.4451 11.2846 17.5 11.1465 17.5H3.02148C2.88335 17.5 2.75087 17.4451 2.6532 17.3474C2.55552 17.2498 2.50065 17.1173 2.50065 16.9792V6.35416Z" fill="#A5A5A5"/>
<path d="M16.9755 0.833328H8.85887C8.4279 0.833736 8.00663 0.961241 7.64777 1.19989C7.28891 1.43853 7.00841 1.77772 6.84137 2.17499C6.75517 2.37855 6.75337 2.60801 6.83635 2.81289C6.91934 3.01777 7.08031 3.1813 7.28387 3.26749C7.48742 3.35369 7.71688 3.35549 7.92176 3.27251C8.12664 3.18952 8.29017 3.02855 8.37637 2.82499C8.4158 2.72929 8.48264 2.64738 8.56849 2.58955C8.65433 2.53173 8.75536 2.50057 8.85887 2.49999H16.9755C17.1147 2.50022 17.2481 2.5556 17.3465 2.65401C17.4449 2.75242 17.5003 2.88582 17.5005 3.02499V13.6417C17.5003 13.7808 17.4449 13.9142 17.3465 14.0126C17.2481 14.1111 17.1147 14.1664 16.9755 14.1667H15.0005C14.7795 14.1667 14.5676 14.2545 14.4113 14.4107C14.255 14.567 14.1672 14.779 14.1672 15C14.1672 15.221 14.255 15.433 14.4113 15.5893C14.5676 15.7455 14.7795 15.8333 15.0005 15.8333H16.9755C17.5566 15.8327 18.1137 15.6015 18.5245 15.1907C18.9354 14.7798 19.1665 14.2227 19.1672 13.6417V3.02499C19.1665 2.44393 18.9354 1.88686 18.5245 1.47598C18.1137 1.06511 17.5566 0.83399 16.9755 0.833328Z" fill="#A5A5A5"/>
</svg>
