<svg width="20" height="20" viewBox="0 0 20 20" fill="none" xmlns="http://www.w3.org/2000/svg">
<path d="M3.32422 18.125C3.39844 19.293 4.17188 20 5.35547 20H14.5586C15.9063 20 16.6172 19.3086 16.6992 17.9688C16.918 14.3594 17.4492 5.55859 17.4883 4.83984H2.53516C2.53516 4.99609 3.05859 13.8984 3.32422 18.125Z" fill="#A5A5A5"/>
<path d="M17.4732 1.28516C16.4146 1.27734 15.3599 1.26953 14.3052 1.28906C14.2427 0.5625 13.6334 0 12.9029 0H7.0982C6.36773 0 5.75836 0.5625 5.69976 1.28906C4.61383 1.26953 3.52398 1.27734 2.43805 1.28516C1.86773 1.29297 1.45367 1.60938 1.31695 2.10938C1.07867 2.98047 1.60601 3.69922 2.50836 3.70312C5.01226 3.71094 7.51226 3.70703 10.0123 3.70703H17.4654C18.274 3.70703 18.7388 3.25391 18.7427 2.5C18.7466 1.74609 18.2779 1.28906 17.4732 1.28516Z" fill="#A5A5A5"/>
</svg>
