<svg width="20" height="20" viewBox="0 0 20 20" fill="none" xmlns="http://www.w3.org/2000/svg">
<path fill-rule="evenodd" clip-rule="evenodd" d="M19.7083 4.50001C19.7083 3.34501 19.25 2.23768 18.4333 1.42093C17.6165 0.604177 16.5092 0.145844 15.3542 0.145844H4.35417C3.19917 0.145844 2.09183 0.604177 1.27508 1.42093C0.458333 2.23768 0 3.34501 0 4.50001V15.5C0 16.655 0.458333 17.7623 1.27508 18.5791C2.09183 19.3958 3.19917 19.8542 4.35417 19.8542H15.3542C16.5092 19.8542 17.6165 19.3958 18.4333 18.5791C19.25 17.7623 19.7083 16.655 19.7083 15.5V4.50001ZM10.3015 6.48276L8.1015 13.0828C7.98233 13.443 8.17667 13.8326 8.53692 13.9527C8.89717 14.0718 9.28675 13.8775 9.40683 13.5173L11.6068 6.91726C11.726 6.55701 11.5317 6.16743 11.1714 6.04734C10.8112 5.92818 10.4216 6.12251 10.3015 6.48276ZM12.6683 8.28584L14.3816 10L12.6683 11.7142C12.3997 11.9818 12.3997 12.4182 12.6683 12.6858C12.936 12.9544 13.3723 12.9544 13.64 12.6858L15.84 10.4858C16.1086 10.2173 16.1086 9.78276 15.84 9.51418L13.64 7.31418C13.3723 7.04559 12.936 7.04559 12.6683 7.31418C12.3997 7.58184 12.3997 8.01818 12.6683 8.28584ZM6.06833 7.31418L3.86833 9.51418C3.59975 9.78276 3.59975 10.2173 3.86833 10.4858L6.06833 12.6858C6.336 12.9544 6.77233 12.9544 7.04 12.6858C7.30858 12.4182 7.30858 11.9818 7.04 11.7142L5.32675 10L7.04 8.28584C7.30858 8.01818 7.30858 7.58184 7.04 7.31418C6.77233 7.04559 6.336 7.04559 6.06833 7.31418Z" fill="#60576B"/>
</svg>
