<svg width="22" height="22" viewBox="0 0 22 22" fill="none" xmlns="http://www.w3.org/2000/svg">
<g id="Group">
<path id="Vector" d="M4.52939 5.70609H3.35293C2.72889 5.70609 2.13042 5.95398 1.68916 6.39524C1.2479 6.8365 1 7.43498 1 8.05901V18.6472C1 19.2712 1.2479 19.8697 1.68916 20.311C2.13042 20.7522 2.72889 21.0001 3.35293 21.0001H13.9411C14.5651 21.0001 15.1636 20.7522 15.6049 20.311C16.0461 19.8697 16.294 19.2712 16.294 18.6472V17.4707" stroke="#A5A5A5" stroke-linecap="round" stroke-linejoin="round"/>
<path id="Vector_2" d="M15.1161 3.35305L18.6455 6.88244M20.2749 5.21775C20.7382 4.7544 20.9985 4.12597 20.9985 3.4707C20.9985 2.81543 20.7382 2.187 20.2749 1.72365C19.8115 1.2603 19.1831 1 18.5278 1C17.8726 1 17.2441 1.2603 16.7808 1.72365L6.88086 11.5883V15.1177H10.4102L20.2749 5.21775Z" stroke="#A5A5A5" stroke-linecap="round" stroke-linejoin="round"/>
</g>
</svg>
