<svg width="15" height="15" viewBox="0 0 15 15" fill="none" xmlns="http://www.w3.org/2000/svg">
<g id="fi_7693332">
<g id="Group">
<path id="Vector" d="M11.25 8.125H3.75C3.375 8.125 3.125 7.875 3.125 7.5C3.125 7.125 3.375 6.875 3.75 6.875H11.25C11.625 6.875 11.875 7.125 11.875 7.5C11.875 7.875 11.625 8.125 11.25 8.125Z" fill="black"/>
</g>
<g id="Group_2">
<path id="Vector_2" d="M9.375 11.875H5.625C5.25 11.875 5 11.625 5 11.25C5 10.875 5.25 10.625 5.625 10.625H9.375C9.75 10.625 10 10.875 10 11.25C10 11.625 9.75 11.875 9.375 11.875Z" fill="black"/>
</g>
<g id="Group_3">
<path id="Vector_3" d="M13.125 4.375H1.875C1.5 4.375 1.25 4.125 1.25 3.75C1.25 3.375 1.5 3.125 1.875 3.125H13.125C13.5 3.125 13.75 3.375 13.75 3.75C13.75 4.125 13.5 4.375 13.125 4.375Z" fill="black"/>
</g>
</g>
</svg>
