<svg width="26" height="18" viewBox="0 0 26 18" fill="none" xmlns="http://www.w3.org/2000/svg">
<path d="M18.7487 7.33749C18.5998 7.40841 18.474 7.51997 18.3858 7.6593C18.2975 7.79863 18.2505 7.96007 18.25 8.12499V10.75H11.25C11.0179 10.75 10.7954 10.8422 10.6313 11.0063C10.4672 11.1704 10.375 11.3929 10.375 11.625V13.375C10.375 13.6071 10.4672 13.8296 10.6313 13.9937C10.7954 14.1578 11.0179 14.25 11.25 14.25H18.25V16.875C18.2502 17.0431 18.2989 17.2077 18.3902 17.3489C18.4814 17.4901 18.6115 17.602 18.7647 17.6713C18.918 17.7405 19.0879 17.7641 19.2542 17.7393C19.4205 17.7145 19.5762 17.6422 19.7025 17.5312L24.9525 12.955C25.0458 12.873 25.1206 12.7721 25.1719 12.6589C25.2232 12.5458 25.2498 12.423 25.25 12.2987C25.2468 12.1703 25.2154 12.0441 25.1579 11.9292C25.1004 11.8142 25.0184 11.7134 24.9175 11.6337L19.6675 7.45999C19.5412 7.35559 19.3881 7.28876 19.2257 7.2671C19.0632 7.24544 18.898 7.26983 18.7487 7.33749ZM7.25125 10.6625C7.40015 10.5916 7.52598 10.48 7.61422 10.3407C7.70246 10.2014 7.74953 10.0399 7.75 9.87499V7.24999H14.75C14.9821 7.24999 15.2046 7.1578 15.3687 6.99371C15.5328 6.82962 15.625 6.60706 15.625 6.37499V4.62499C15.625 4.39293 15.5328 4.17037 15.3687 4.00627C15.2046 3.84218 14.9821 3.74999 14.75 3.74999H7.75V1.12499C7.74979 0.956837 7.70113 0.792305 7.60984 0.651086C7.51855 0.509867 7.38851 0.397943 7.23527 0.328708C7.08203 0.259473 6.91208 0.23586 6.74577 0.260695C6.57946 0.285529 6.42383 0.35776 6.2975 0.468742L1.0475 5.04499C0.954165 5.12699 0.879361 5.22792 0.828065 5.34107C0.776769 5.45423 0.750157 5.577 0.75 5.70124C0.753193 5.8297 0.78464 5.95588 0.842106 6.07081C0.899573 6.18575 0.981648 6.28661 1.0825 6.36624L6.3325 10.54C6.45881 10.6444 6.61189 10.7112 6.77432 10.7329C6.93675 10.7545 7.102 10.7302 7.25125 10.6625Z" fill="#60576B"/>
</svg>
