<svg width="16" height="20" viewBox="0 0 16 20" fill="none" xmlns="http://www.w3.org/2000/svg">
<path d="M4.25 9.74998V8.25003H11.75V9.74998H4.25ZM4.25 5.74998V4.25003H11.75V5.74998H4.25ZM1.99997 12.25H9.49998C9.94484 12.25 10.3564 12.3462 10.7346 12.5385C11.1128 12.7308 11.4339 13.0026 11.698 13.3539L14 16.3539V2.30773C14 2.21798 13.9711 2.14426 13.9134 2.08656C13.8557 2.02886 13.782 2.00001 13.6922 2.00001H2.3077C2.21795 2.00001 2.14423 2.02886 2.08652 2.08656C2.02882 2.14426 1.99997 2.21798 1.99997 2.30773V12.25ZM2.3077 18H13.3673L10.5173 14.2712C10.3917 14.1058 10.242 13.9775 10.0683 13.8865C9.89453 13.7955 9.70511 13.75 9.49998 13.75H1.99997V17.6923C1.99997 17.782 2.02882 17.8558 2.08652 17.9135C2.14423 17.9712 2.21795 18 2.3077 18ZM13.6922 19.5H2.3077C1.80257 19.5 1.375 19.325 1.025 18.975C0.675 18.625 0.5 18.1974 0.5 17.6923V2.30773C0.5 1.8026 0.675 1.37503 1.025 1.02503C1.375 0.675031 1.80257 0.500031 2.3077 0.500031H13.6922C14.1974 0.500031 14.625 0.675031 14.975 1.02503C15.325 1.37503 15.5 1.8026 15.5 2.30773V17.6923C15.5 18.1974 15.325 18.625 14.975 18.975C14.625 19.325 14.1974 19.5 13.6922 19.5Z" fill="#AB18C3"/>
</svg>
