<svg width="22" height="22" viewBox="0 0 22 22" fill="none" xmlns="http://www.w3.org/2000/svg">
<path d="M11.0007 20.1667C16.0633 20.1667 20.1673 16.0626 20.1673 11C20.1673 5.93739 16.0633 1.83333 11.0007 1.83333C5.93804 1.83333 1.83398 5.93739 1.83398 11C1.83398 16.0626 5.93804 20.1667 11.0007 20.1667Z" fill="#60576B"/>
<path d="M11.0013 7.91083C11.6341 7.91083 12.1471 7.39782 12.1471 6.765C12.1471 6.13217 11.6341 5.61916 11.0013 5.61916C10.3685 5.61916 9.85547 6.13217 9.85547 6.765C9.85547 7.39782 10.3685 7.91083 11.0013 7.91083Z" fill="white"/>
<path d="M11.0013 16.39C10.7582 16.39 10.525 16.2934 10.3531 16.1215C10.1812 15.9496 10.0846 15.7164 10.0846 15.4733V10.89C9.84152 10.89 9.60836 10.7934 9.43645 10.6215C9.26455 10.4496 9.16797 10.2164 9.16797 9.97333C9.16797 9.73022 9.26455 9.49706 9.43645 9.32515C9.60836 9.15324 9.84152 9.05666 10.0846 9.05666H11.0013C11.2444 9.05666 11.4776 9.15324 11.6495 9.32515C11.8214 9.49706 11.918 9.73022 11.918 9.97333V15.4733C11.918 15.7164 11.8214 15.9496 11.6495 16.1215C11.4776 16.2934 11.2444 16.39 11.0013 16.39Z" fill="white"/>
<path d="M11.918 16.39H10.0846C9.84152 16.39 9.60836 16.2934 9.43645 16.1215C9.26455 15.9496 9.16797 15.7164 9.16797 15.4733C9.16797 15.2302 9.26455 14.9971 9.43645 14.8251C9.60836 14.6532 9.84152 14.5567 10.0846 14.5567H11.918C12.1611 14.5567 12.3942 14.6532 12.5662 14.8251C12.7381 14.9971 12.8346 15.2302 12.8346 15.4733C12.8346 15.7164 12.7381 15.9496 12.5662 16.1215C12.3942 16.2934 12.1611 16.39 11.918 16.39Z" fill="white"/>
</svg>
