<svg width="31" height="27" viewBox="0 0 31 27" fill="none" xmlns="http://www.w3.org/2000/svg">
<path d="M25.2044 10.9802C26.0281 17.6929 21.2541 23.8024 14.5414 24.6261C7.82871 25.4498 1.71935 20.6758 0.895636 13.9631C0.0719263 7.25041 4.84586 1.14099 11.5586 0.317276C18.2713 -0.506433 24.3807 4.26757 25.2044 10.9802ZM4.36834 13.537C4.9567 18.3318 9.32056 21.7417 14.1154 21.1534C18.9101 20.565 22.3201 16.2011 21.7317 11.4064C21.1434 6.61156 16.7795 3.20161 11.9847 3.78998C7.18992 4.37834 3.77998 8.74226 4.36834 13.537Z" fill="#444455"/>
<path d="M30.3816 24.4448C30.4409 24.9061 30.3141 25.3719 30.0293 25.7394C29.4376 26.5032 28.3388 26.6426 27.575 26.0508C27.5713 26.0479 27.5675 26.0449 27.5637 26.042L20.234 20.3145C19.4666 19.6932 19.3482 18.5675 19.9695 17.8001C20.5908 17.0327 21.7165 16.9143 22.4839 17.5356L29.7268 23.2738C30.092 23.5616 30.3277 23.983 30.3816 24.4448Z" fill="#444455"/>
</svg>
