<svg width="28" height="28" viewBox="0 0 28 28" fill="none" xmlns="http://www.w3.org/2000/svg">
<path d="M20.125 4.375H7.875C7.39174 4.375 7 4.76674 7 5.25V6.125H18.3932C18.8664 6.125 19.25 6.5086 19.25 6.9818V23.625H20.125C20.6083 23.625 21 23.2333 21 22.75V5.25C21 4.76674 20.6083 4.375 20.125 4.375Z" fill="#60576B"/>
<path d="M22.75 1.75H10.5C10.0167 1.75 9.625 2.14174 9.625 2.625V3.5H21C21.4833 3.5 21.875 3.89174 21.875 4.375V21H22.75C23.2333 21 23.625 20.6083 23.625 20.125V2.625C23.625 2.14174 23.2333 1.75 22.75 1.75Z" fill="#60576B"/>
<path d="M17.5 7H5.25C4.76682 7 4.375 7.39182 4.375 7.875V25.375C4.375 25.8582 4.76682 26.25 5.25 26.25H17.5C17.9836 26.25 18.375 25.8582 18.375 25.375V7.875C18.375 7.39182 17.9836 7 17.5 7ZM14.875 20.125H9.11234L9.36871 20.3814C9.71049 20.7231 9.71049 21.2768 9.36871 21.6187C9.19774 21.7895 8.97391 21.875 8.75 21.875C8.52609 21.875 8.30226 21.7895 8.13138 21.6186L6.38138 19.8686C6.0396 19.5269 6.0396 18.9732 6.38138 18.6313L8.13138 16.8813C8.47315 16.5395 9.02685 16.5395 9.36871 16.8813C9.71058 17.2231 9.71049 17.7768 9.36871 18.1186L9.11234 18.375H14.875C15.3586 18.375 15.75 18.7668 15.75 19.25C15.75 19.7332 15.3586 20.125 14.875 20.125ZM16.3686 14.6186L14.6186 16.3686C14.4477 16.5395 14.2239 16.625 14 16.625C13.7761 16.625 13.5523 16.5395 13.3814 16.3686C13.0396 16.0269 13.0396 15.4732 13.3814 15.1313L13.6377 14.875H7.875C7.39139 14.875 7 14.4832 7 14C7 13.5168 7.39139 13.125 7.875 13.125H13.6377L13.3813 12.8686C13.0395 12.5268 13.0395 11.9732 13.3813 11.6313C13.7231 11.2894 14.2768 11.2895 14.6186 11.6313L16.3686 13.3813C16.7105 13.7232 16.7105 14.2769 16.3686 14.6186Z" fill="#60576B"/>
</svg>
