<svg width="13" height="14" viewBox="0 0 13 14" fill="none" xmlns="http://www.w3.org/2000/svg">
<g id="fi_3097412">
<path id="Vector" d="M11.9165 7.54166C11.7728 7.54166 11.6351 7.59872 11.5335 7.70031C11.4319 7.80189 11.3748 7.93966 11.3748 8.08332V10.3654C11.3744 10.7656 11.2152 11.1493 10.9322 11.4324C10.6492 11.7154 10.2655 11.8746 9.86521 11.875H3.13446C2.73422 11.8746 2.35049 11.7154 2.06747 11.4324C1.78445 11.1493 1.62527 10.7656 1.62484 10.3654V8.08332C1.62484 7.93966 1.56777 7.80189 1.46619 7.70031C1.3646 7.59872 1.22683 7.54166 1.08317 7.54166C0.939512 7.54166 0.801737 7.59872 0.700154 7.70031C0.598572 7.80189 0.541504 7.93966 0.541504 8.08332V10.3654C0.542221 11.0528 0.815637 11.712 1.30176 12.1981C1.78787 12.6842 2.44699 12.9576 3.13446 12.9583H9.86521C10.5527 12.9576 11.2118 12.6842 11.6979 12.1981C12.184 11.712 12.4575 11.0528 12.4582 10.3654V8.08332C12.4582 7.93966 12.4011 7.80189 12.2995 7.70031C12.1979 7.59872 12.0602 7.54166 11.9165 7.54166Z" fill="white"/>
<path id="Vector_2" d="M3.63281 5.21629L5.95819 2.89091V9.70833C5.95819 9.85199 6.01526 9.98976 6.11684 10.0913C6.21842 10.1929 6.3562 10.25 6.49985 10.25C6.64351 10.25 6.78129 10.1929 6.88287 10.0913C6.98445 9.98976 7.04152 9.85199 7.04152 9.70833V2.89091L9.3669 5.21629C9.46906 5.31496 9.60588 5.36955 9.74791 5.36832C9.88993 5.36709 10.0258 5.31012 10.1262 5.20969C10.2266 5.10926 10.2836 4.9734 10.2848 4.83138C10.2861 4.68936 10.2315 4.55253 10.1328 4.45037L6.88281 1.20037C6.78124 1.09882 6.64349 1.04178 6.49985 1.04178C6.35622 1.04178 6.21847 1.09882 6.1169 1.20037L2.8669 4.45037C2.76823 4.55253 2.71363 4.68936 2.71486 4.83138C2.7161 4.9734 2.77307 5.10926 2.87349 5.20969C2.97392 5.31012 3.10978 5.36709 3.2518 5.36832C3.39383 5.36955 3.53065 5.31496 3.63281 5.21629Z" fill="white"/>
</g>
</svg>
