<svg width="36" height="36" viewBox="0 0 36 36" fill="none" xmlns="http://www.w3.org/2000/svg">
<g id="fi_8191607">
<path id="image-upload" d="M32.6236 16.5V25.5C32.7117 26.26 32.6268 27.0301 32.3752 27.7526C32.1237 28.4752 31.712 29.1315 31.171 29.6725C30.6301 30.2135 29.9737 30.6251 29.2512 30.8767C28.5287 31.1282 27.7586 31.2131 26.9986 31.125H8.99859C8.2386 31.2131 7.46853 31.1282 6.74599 30.8767C6.02344 30.6251 5.36712 30.2135 4.82613 29.6725C4.28514 29.1315 3.87348 28.4752 3.62194 27.7526C3.3704 27.0301 3.2855 26.26 3.37359 25.5V10.5C3.2855 9.74002 3.3704 8.96995 3.62194 8.2474C3.87348 7.52486 4.28514 6.86854 4.82613 6.32755C5.36712 5.78656 6.02344 5.3749 6.74599 5.12336C7.46853 4.87182 8.2386 4.78692 8.99859 4.87501H20.9986C21.297 4.87501 21.5831 4.99354 21.7941 5.20451C22.0051 5.41549 22.1236 5.70164 22.1236 6.00001C22.1236 6.29838 22.0051 6.58453 21.7941 6.7955C21.5831 7.00648 21.297 7.12501 20.9986 7.12501H8.99859C6.63309 7.12501 5.62359 8.13451 5.62359 10.5V24.375L9.43359 20.565C9.7168 20.284 10.0996 20.1263 10.4986 20.1263C10.8976 20.1263 11.2804 20.284 11.5636 20.565L12.9736 21.975C13.1138 22.1124 13.3023 22.1894 13.4986 22.1894C13.6949 22.1894 13.8834 22.1124 14.0236 21.975L21.4336 14.565C21.7168 14.284 22.0996 14.1263 22.4986 14.1263C22.8976 14.1263 23.2804 14.284 23.5636 14.565L30.3736 21.375V16.5C30.3736 16.2016 30.4921 15.9155 30.7031 15.7045C30.9141 15.4935 31.2002 15.375 31.4986 15.375C31.797 15.375 32.0831 15.4935 32.2941 15.7045C32.5051 15.9155 32.6236 16.2016 32.6236 16.5ZM11.9881 11.625C11.4901 11.6264 11.013 11.8254 10.6616 12.1783C10.3101 12.5312 10.1131 13.0091 10.1138 13.5071C10.1145 14.0051 10.3129 14.4825 10.6653 14.8344C11.0177 15.1863 11.4953 15.384 11.9933 15.384C12.4914 15.384 12.969 15.1863 13.3214 14.8344C13.6738 14.4825 13.8721 14.0051 13.8728 13.5071C13.8735 13.0091 13.6765 12.5312 13.3251 12.1783C12.9737 11.8254 12.4966 11.6264 11.9986 11.625H11.9881ZM27.7936 7.54501L28.1236 7.21651V10.5C28.1236 10.7984 28.2421 11.0845 28.4531 11.2955C28.6641 11.5065 28.9502 11.625 29.2486 11.625C29.547 11.625 29.8331 11.5065 30.0441 11.2955C30.2551 11.0845 30.3736 10.7984 30.3736 10.5V7.21651L30.7036 7.54501C30.9169 7.74373 31.1989 7.85191 31.4904 7.84677C31.7818 7.84163 32.0599 7.72356 32.266 7.51744C32.4721 7.31132 32.5902 7.03324 32.5954 6.74179C32.6005 6.45034 32.4923 6.16827 32.2936 5.95501L30.0436 3.70501C29.8325 3.4947 29.5466 3.37662 29.2486 3.37662C28.9506 3.37662 28.6647 3.4947 28.4536 3.70501L26.2036 5.95501C26.0049 6.16827 25.8967 6.45034 25.9018 6.74179C25.907 7.03324 26.025 7.31132 26.2312 7.51744C26.4373 7.72356 26.7154 7.84163 27.0068 7.84677C27.2983 7.85191 27.5803 7.74373 27.7936 7.54501Z" fill="#656565"/>
</g>
</svg>
