<svg width="23" height="22" viewBox="0 0 23 22" fill="none" xmlns="http://www.w3.org/2000/svg">
<path d="M21.5 18V19.1667C21.5 20.4558 20.4558 21.5 19.1667 21.5H2.83333C1.54417 21.5 0.5 20.4558 0.5 19.1667V2.83333C0.5 1.54417 1.54417 0.5 2.83333 0.5H19.1667C20.4558 0.5 21.5 1.54417 21.5 2.83333V4H11C9.71083 4 8.66667 5.04417 8.66667 6.33333V15.6667C8.66667 16.9558 9.71083 18 11 18H21.5ZM11 15.6667H22.6667V6.33333H11V15.6667ZM15.6667 12.75C14.6983 12.75 13.9167 11.9683 13.9167 11C13.9167 10.0317 14.6983 9.25 15.6667 9.25C16.635 9.25 17.4167 10.0317 17.4167 11C17.4167 11.9683 16.635 12.75 15.6667 12.75Z" fill="#60576B"/>
</svg>
