<svg width="20" height="18" viewBox="0 0 20 18" fill="none" xmlns="http://www.w3.org/2000/svg">
<path d="M4.32 8.92002H1.08C0.48 8.92002 0 9.40002 0 10V16.56C0 17.16 0.48 17.64 1.08 17.64H4.32C4.92 17.64 5.4 17.16 5.4 16.56V10C5.4 9.40002 4.92 8.92002 4.32 8.92002ZM11.64 6.40002H8.4C7.8 6.40002 7.32 6.88002 7.32 7.48002V16.56C7.32 17.16 7.8 17.64 8.4 17.64H11.64C12.24 17.64 12.72 17.16 12.72 16.56V7.48002C12.68 6.88002 12.2 6.40002 11.64 6.40002ZM18.92 0.400024H15.68C15.08 0.400024 14.6 0.880025 14.6 1.48002V16.56C14.6 17.16 15.08 17.64 15.68 17.64H18.92C19.52 17.64 20 17.16 20 16.56V1.44002C20 0.880025 19.52 0.400024 18.92 0.400024Z" fill="#60576B"/>
</svg>
