<svg width="24" height="21" viewBox="0 0 24 21" fill="none" xmlns="http://www.w3.org/2000/svg">
<path d="M11.9999 0.333374C9.75172 0.333431 7.55146 0.98304 5.66379 2.20405C3.77611 3.42507 2.28142 5.16548 1.35953 7.21592C0.437632 9.26636 0.127798 11.5395 0.467299 13.7619C0.8068 15.9842 1.78117 18.0612 3.27321 19.7429C3.38224 19.8655 3.51591 19.9638 3.66549 20.0313C3.81507 20.0989 3.97721 20.1341 4.14132 20.1347C14.1001 20.1749 9.6299 20.1662 19.8298 20.1632C19.9939 20.1633 20.1562 20.1288 20.306 20.0618C20.4558 19.9949 20.5898 19.897 20.6991 19.7747C22.1998 18.0957 23.1824 16.0183 23.5286 13.7932C23.8747 11.5681 23.5694 9.29041 22.6497 7.23494C21.73 5.17947 20.235 3.4341 18.3453 2.20946C16.4555 0.984822 14.2517 0.333249 11.9999 0.333374ZM17.3558 9.44107L15.3165 10.9344C15.4332 11.2778 15.4951 11.6374 15.4999 12C15.5031 12.7827 15.245 13.5441 14.7665 14.1634C14.2879 14.7828 13.6163 15.2247 12.8582 15.4191C12.1 15.6135 11.2987 15.5492 10.5812 15.2365C9.86365 14.9238 9.27105 14.3805 8.89731 13.6929C8.52357 13.0052 8.39008 12.2124 8.51799 11.4402C8.6459 10.6681 9.0279 9.9607 9.60343 9.43026C10.179 8.89982 10.9151 8.57666 11.6951 8.51203C12.4751 8.4474 13.2544 8.64498 13.9094 9.07346L15.9773 7.55889C16.2272 7.38212 16.5365 7.31063 16.8386 7.35984C17.1407 7.40906 17.4114 7.57503 17.5923 7.82197C17.7731 8.06891 17.8497 8.37705 17.8055 8.67992C17.7612 8.9828 17.5997 9.25617 17.3558 9.44107Z" fill="#A02695"/>
</svg>
